<svg xmlns="http://www.w3.org/2000/svg" width="57" height="64" fill="none" viewBox="0 0 57 64">
  <path fill="#fff" d="M52.843 11.893a11.824 11.824 0 0 0-.792-.945 13.45 13.45 0 0 0 .64-2.316A16.1 16.1 0 0 0 51.624.1S48.211-.967 40.38 4.305a38.02 38.02 0 0 0-10.21-1.371 38.408 38.408 0 0 0-10.238 1.37C12.1-1.027 8.688.1 8.688.1a16.04 16.04 0 0 0-1.066 8.44c.144.823.369 1.63.67 2.408-.274.305-.548.64-.792.944a15.662 15.662 0 0 0-3.413 10.056c-.007.866.033 1.73.122 2.59.975 13.5 9.964 16.639 18.527 17.614a7.793 7.793 0 0 0-2.346 4.236 12.252 12.252 0 0 0-.396 3.321v3.99c-3.408.304-6.907-.192-7.99-3.233a17.353 17.353 0 0 0-5.591-7.35 3.6 3.6 0 0 1-.515-.343 3.052 3.052 0 0 0-2.836-1.967h-.015A3.046 3.046 0 0 0 0 43.838c-.012 2.476 2.466 4.074 3.482 4.619a13.611 13.611 0 0 1 2.812 4.14c1.11 3.118 4.355 7.856 13.609 7.24.003.107.006.208.007.3l.013.816A3.047 3.047 0 0 0 22.971 64l.01-.002L37.335 64a3.047 3.047 0 0 0 3.047-3.047s.023-9.629.023-11.244c.02-1.12-.113-2.237-.396-3.321l-.006-.019.01.019c-.026-.107-.066-.194-.095-.297a7.716 7.716 0 0 0-2.256-3.94l.036.064c-.021-.018-.04-.045-.062-.063 8.563-.975 17.492-4.175 18.467-17.613.088-.86.129-1.726.122-2.59a15.938 15.938 0 0 0-3.383-10.057Z"/>
</svg>
