<svg xmlns="http://www.w3.org/2000/svg" width="256" height="256" fill="none" viewBox="0 0 256 256">
  <path fill="#fff" d="M0 0h256v256H0z"/>
  <g filter="url(#a)">
    <path fill="#67C9F3" d="m128.41 27 99.082 171.615H29.328L128.41 27Z"/>
  </g>
  <path stroke="#000" stroke-width="4" d="M127.725 107.484c23.674 0 37.874 19.122 43.475 43.868 2.809 12.413 2.631 22.978-3.178 30.453-5.803 7.469-17.764 12.532-40.297 12.532-22.534 0-34.495-5.063-40.3-12.532-5.808-7.475-5.986-18.04-3.177-30.453 5.6-24.746 19.802-43.868 43.477-43.868Zm55.71-8.319c5.314-1.423 11.04.116 16.056 4.053 5.017 3.938 9.208 10.207 11.271 17.907 2.064 7.7 1.568 15.225-.807 21.144-2.376 5.918-6.565 10.114-11.879 11.538-5.314 1.424-11.041-.115-16.057-4.053-5.017-3.937-9.209-10.207-11.272-17.907-2.063-7.7-1.567-15.225.808-21.144 2.376-5.918 6.566-10.114 11.88-11.538Zm-42.494-44.687c4.985-2.325 10.892-1.803 16.515 1.203 5.625 3.007 10.841 8.453 14.21 15.678 3.369 7.225 4.188 14.722 2.876 20.963-1.311 6.24-4.708 11.1-9.694 13.425-4.986 2.325-10.893 1.804-16.517-1.202-5.624-3.007-10.841-8.454-14.21-15.678-3.369-7.225-4.188-14.722-2.876-20.963 1.312-6.24 4.71-11.1 9.696-13.426Zm-26.3-.066c4.986 2.325 8.383 7.185 9.694 13.425 1.312 6.241.494 13.738-2.875 20.963-3.369 7.225-8.586 12.671-14.21 15.678-5.624 3.006-11.53 3.528-16.516 1.203-4.986-2.325-8.384-7.185-9.696-13.425-1.312-6.242-.493-13.739 2.876-20.964 3.37-7.225 8.586-12.67 14.21-15.677 5.624-3.007 11.531-3.528 16.517-1.203ZM72.099 99.099c5.313 1.424 9.503 5.62 11.878 11.538 2.376 5.918 2.871 13.443.808 21.143-2.063 7.7-6.255 13.97-11.272 17.908-5.016 3.937-10.742 5.476-16.056 4.053-5.313-1.424-9.504-5.621-11.879-11.539-2.376-5.918-2.871-13.444-.808-21.144 2.063-7.7 6.255-13.969 11.272-17.907 5.016-3.937 10.743-5.476 16.057-4.052Z"/>
  <defs>
    <filter id="a" width="202.164" height="175.615" x="29.328" y="27" color-interpolation-filters="sRGB" filterUnits="userSpaceOnUse">
      <feFlood flood-opacity="0" result="BackgroundImageFix"/>
      <feColorMatrix in="SourceAlpha" result="hardAlpha" values="0 0 0 0 0 0 0 0 0 0 0 0 0 0 0 0 0 0 127 0"/>
      <feOffset dx="4" dy="4"/>
      <feComposite in2="hardAlpha" operator="out"/>
      <feColorMatrix values="0 0 0 0 0 0 0 0 0 0 0 0 0 0 0 0 0 0 0.25 0"/>
      <feBlend in2="BackgroundImageFix" result="effect1_dropShadow_8_2"/>
      <feBlend in="SourceGraphic" in2="effect1_dropShadow_8_2" result="shape"/>
    </filter>
  </defs>
</svg>
